<?xml version="1.0" encoding="UTF-8" standalone="no"?>
<!-- Created with Inkscape (http://www.inkscape.org/) -->

<svg
   xmlns:dc="http://purl.org/dc/elements/1.1/"
   xmlns:cc="http://creativecommons.org/ns#"
   xmlns:rdf="http://www.w3.org/1999/02/22-rdf-syntax-ns#"
   xmlns:svg="http://www.w3.org/2000/svg"
   xmlns="http://www.w3.org/2000/svg"
   xmlns:sodipodi="http://sodipodi.sourceforge.net/DTD/sodipodi-0.dtd"
   xmlns:inkscape="http://www.inkscape.org/namespaces/inkscape"
   width="210mm"
   height="297mm"
   viewBox="0 0 210 297"
   version="1.1"
   id="svg8"
   inkscape:version="0.92.4 (5da689c313, 2019-01-14)"
   sodipodi:docname="dibujo.svg">
  <defs
     id="defs2">
    <radialGradient
       id="radialGradient4843"
       spreadMethod="pad"
       gradientTransform="matrix(789.05133,0,0,-789.05133,700,490)"
       gradientUnits="userSpaceOnUse"
       r="1"
       cy="-0.048883297"
       cx="-0.47797"
       fy="-0.048883297"
       fx="-0.47797">
      <stop
         id="stop4839"
         offset="0"
         style="stop-opacity:1;stop-color:#ffffff" />
      <stop
         id="stop4841"
         offset="1"
         style="stop-opacity:1;stop-color:#9d9d9c" />
    </radialGradient>
    <clipPath
       id="clipPath4853"
       clipPathUnits="userSpaceOnUse">
      <path
         inkscape:connector-curvature="0"
         id="path4851"
         d="M 0,980 H 1400 V 0 H 0 Z" />
    </clipPath>
    <style
       id="style879"
       type="text/css"><![CDATA[
    .fil1 {fill:#282828;fill-rule:nonzero}
    .fil0 {fill:#FEFEFE;fill-rule:nonzero}
   ]]></style>
  </defs>
  <sodipodi:namedview
     id="base"
     pagecolor="#ffffff"
     bordercolor="#666666"
     borderopacity="1.0"
     inkscape:pageopacity="0.0"
     inkscape:pageshadow="2"
     inkscape:zoom="4"
     inkscape:cx="177.77991"
     inkscape:cy="640.39931"
     inkscape:document-units="mm"
     inkscape:current-layer="text4520"
     showgrid="false"
     inkscape:window-width="1920"
     inkscape:window-height="1001"
     inkscape:window-x="-9"
     inkscape:window-y="-9"
     inkscape:window-maximized="1" />
  <metadata
     id="metadata5">
    <rdf:RDF>
      <cc:Work
         rdf:about="">
        <dc:format>image/svg+xml</dc:format>
        <dc:type
           rdf:resource="http://purl.org/dc/dcmitype/StillImage" />
        <dc:title />
      </cc:Work>
    </rdf:RDF>
  </metadata>
  <g
     inkscape:label="Capa 1"
     inkscape:groupmode="layer"
     id="layer1">
    <g
       aria-label="Soundplanes"
       style="font-style:normal;font-weight:normal;font-size:10.58333302px;line-height:1.25;font-family:sans-serif;letter-spacing:0px;word-spacing:0px;fill:#000000;fill-opacity:1;stroke:none;stroke-width:0.26458332"
       id="text4520">
      <path
         id="path888-1"
         d="m 71.02294,124.43629 -4e-6,-0.37094 -17.369779,-2.91011 -0.337433,-5.89205 -0.318285,-0.18434 -0.0028,-1e-5 -0.318301,0.18428 -0.425988,5.90641 -17.281226,2.89574 5e-6,0.37094 8.718388,-0.82085 0.682064,-0.0622 6.239048,-0.58632 c -0.06464,0.22254 -0.100514,0.45949 -0.100526,0.70359 -2e-6,1.25404 0.928553,2.29028 2.482931,2.29141 1.554371,7.4e-4 2.482923,-1.03515 2.482923,-2.28918 0,-0.2441 -0.03586,-0.48104 -0.1029,-0.70359 l 6.239049,0.58633 0.682058,0.0622 8.718393,0.82088 z"
         class="fil1"
         inkscape:connector-curvature="0"
         style="font-style:normal;font-weight:normal;font-size:10.58333302px;line-height:1.25;font-family:sans-serif;letter-spacing:0px;word-spacing:0px;clip-rule:evenodd;fill:#282828;fill-opacity:1;fill-rule:nonzero;stroke:none;stroke-width:0.0006332;image-rendering:optimizeQuality;shape-rendering:geometricPrecision;text-rendering:geometricPrecision"
         sodipodi:nodetypes="cccccccccccccscsccccc" />
      <path
         d="m 35.356659,128.34796 q 0,0.47026 -0.1757,0.83716 -0.170532,0.3669 -0.48059,0.62528 -0.304891,0.25322 -0.72347,0.38241 -0.413412,0.12919 -0.894003,0.12919 -0.335896,0 -0.625284,-0.0568 -0.284221,-0.0568 -0.511597,-0.13953 -0.222209,-0.0827 -0.377238,-0.17053 -0.149862,-0.0878 -0.211873,-0.14986 -0.05685,-0.062 -0.08785,-0.15503 -0.02584,-0.0982 -0.02584,-0.25838 0,-0.11369 0.01034,-0.18604 0.01034,-0.0775 0.03101,-0.12402 0.02067,-0.0465 0.05168,-0.062 0.03101,-0.0207 0.07235,-0.0207 0.07235,0 0.201538,0.0879 0.134359,0.0879 0.341065,0.19121 0.206705,0.10335 0.496093,0.19637 0.294556,0.0879 0.676961,0.0879 0.289389,0 0.5271,-0.0775 0.242879,-0.0775 0.413412,-0.21704 0.175699,-0.14469 0.268717,-0.3514 0.09302,-0.2067 0.09302,-0.47025 0,-0.28422 -0.129192,-0.48576 -0.129191,-0.20154 -0.341064,-0.3514 -0.211873,-0.15503 -0.485758,-0.27905 -0.268718,-0.1292 -0.552938,-0.25839 -0.284221,-0.13436 -0.552938,-0.29455 -0.268717,-0.1602 -0.480591,-0.37724 -0.211873,-0.21704 -0.346232,-0.50643 -0.129191,-0.29455 -0.129191,-0.7028 0,-0.41858 0.149862,-0.74414 0.155029,-0.33073 0.423746,-0.55294 0.273885,-0.22221 0.645956,-0.33589 0.377238,-0.11886 0.81132,-0.11886 0.222208,0 0.444417,0.0413 0.227376,0.0362 0.423747,0.10335 0.201538,0.062 0.356567,0.1447 0.155029,0.0775 0.201538,0.12919 0.05168,0.0465 0.06718,0.0775 0.0155,0.0258 0.02584,0.0724 0.01033,0.0413 0.0155,0.10335 0.0052,0.062 0.0052,0.1602 0,0.093 -0.01034,0.16537 -0.0052,0.0723 -0.02067,0.12402 -0.0155,0.0465 -0.04651,0.0724 -0.02584,0.0207 -0.06201,0.0207 -0.05684,0 -0.180868,-0.0724 -0.118855,-0.0724 -0.294555,-0.1602 -0.1757,-0.093 -0.418579,-0.16536 -0.237712,-0.0775 -0.537435,-0.0775 -0.279053,0 -0.485759,0.0775 -0.206705,0.0724 -0.341064,0.19637 -0.134359,0.12402 -0.201538,0.29455 -0.06718,0.17054 -0.06718,0.36174 0,0.27905 0.129191,0.48059 0.129191,0.20154 0.341064,0.35657 0.217041,0.15503 0.490926,0.28422 0.273885,0.12919 0.558106,0.26355 0.28422,0.12919 0.558105,0.28939 0.273885,0.15502 0.485759,0.37207 0.217041,0.21187 0.346232,0.50642 0.134358,0.28939 0.134358,0.6873 z"
         style="font-style:normal;font-variant:normal;font-weight:normal;font-stretch:normal;font-family:Calibri;-inkscape-font-specification:Calibri;fill:#000000;fill-opacity:1;stroke:#ffffff;stroke-width:0.301;stroke-miterlimit:4;stroke-dasharray:none;stroke-opacity:1;paint-order:stroke fill markers"
         id="path4755"
         inkscape:connector-curvature="0" />
      <path
         d="m 40.288598,127.71751 q 0,0.56844 -0.149862,1.04903 -0.149861,0.47542 -0.449585,0.82166 -0.294555,0.34623 -0.74414,0.5426 -0.444418,0.1912 -1.033529,0.1912 -0.573608,0 -1.002523,-0.17053 -0.423746,-0.17053 -0.707967,-0.49609 -0.28422,-0.32557 -0.423747,-0.79065 -0.139526,-0.46509 -0.139526,-1.0542 0,-0.56844 0.144694,-1.04387 0.149862,-0.48059 0.444417,-0.82682 0.299724,-0.34623 0.744141,-0.53744 0.444417,-0.1912 1.038696,-0.1912 0.573609,0 0.997355,0.17053 0.428915,0.17054 0.713135,0.4961 0.284221,0.32556 0.423747,0.79065 0.144694,0.46509 0.144694,1.04903 z m -0.89917,0.0568 q 0,-0.37723 -0.07235,-0.71313 -0.06718,-0.3359 -0.227376,-0.58911 -0.160197,-0.25322 -0.434082,-0.39791 -0.273885,-0.14986 -0.682129,-0.14986 -0.377238,0 -0.651123,0.13436 -0.268718,0.13435 -0.444418,0.3824 -0.175699,0.24288 -0.263549,0.57878 -0.08268,0.33589 -0.08268,0.7338 0,0.38241 0.06718,0.7183 0.07235,0.3359 0.232544,0.58912 0.165364,0.24804 0.439249,0.3979 0.273885,0.1447 0.682129,0.1447 0.372071,0 0.645956,-0.13436 0.273885,-0.13436 0.449585,-0.37724 0.175699,-0.24288 0.258382,-0.57877 0.08268,-0.3359 0.08268,-0.73898 z"
         style="font-style:normal;font-variant:normal;font-weight:normal;font-stretch:normal;font-family:Calibri;-inkscape-font-specification:Calibri;stroke:#ffffff;stroke-width:0.301;stroke-miterlimit:4;stroke-dasharray:none;stroke-opacity:1;paint-order:stroke fill markers"
         id="path4757"
         inkscape:connector-curvature="0" />
      <path
         d="m 44.546372,130.09462 q 0,0.0413 -0.02067,0.0724 -0.0155,0.0258 -0.06201,0.0465 -0.04651,0.0207 -0.124023,0.031 -0.07235,0.0103 -0.180868,0.0103 -0.118855,0 -0.19637,-0.0103 -0.07235,-0.0103 -0.118856,-0.031 -0.04134,-0.0207 -0.05684,-0.0465 -0.0155,-0.031 -0.0155,-0.0724 v -0.61494 q -0.397908,0.43924 -0.785482,0.64078 -0.387573,0.20154 -0.785481,0.20154 -0.465088,0 -0.785482,-0.15503 -0.315226,-0.15503 -0.511597,-0.41858 -0.19637,-0.26871 -0.28422,-0.62011 -0.08268,-0.35657 -0.08268,-0.863 v -2.82153 q 0,-0.0413 0.0155,-0.0672 0.02067,-0.031 0.07235,-0.0517 0.05168,-0.0258 0.134358,-0.031 0.08268,-0.0103 0.206706,-0.0103 0.124023,0 0.206706,0.0103 0.08268,0.005 0.129191,0.031 0.05168,0.0207 0.07235,0.0517 0.02067,0.0258 0.02067,0.0672 v 2.70784 q 0,0.40824 0.05684,0.65629 0.06201,0.24288 0.180868,0.41858 0.124023,0.17053 0.310059,0.26872 0.186035,0.093 0.434082,0.093 0.320393,0 0.63562,-0.22738 0.320394,-0.22738 0.676961,-0.66663 v -3.25044 q 0,-0.0413 0.0155,-0.0672 0.02067,-0.031 0.07235,-0.0517 0.05168,-0.0258 0.129191,-0.031 0.08268,-0.0103 0.211873,-0.0103 0.124024,0 0.206706,0.0103 0.08268,0.005 0.129191,0.031 0.04651,0.0207 0.06718,0.0517 0.02584,0.0258 0.02584,0.0672 z"
         style="font-style:normal;font-variant:normal;font-weight:normal;font-stretch:normal;font-family:Calibri;-inkscape-font-specification:Calibri;stroke:#ffffff;stroke-width:0.301;stroke-miterlimit:4;stroke-dasharray:none;stroke-opacity:1;paint-order:stroke fill markers"
         id="path4759"
         inkscape:connector-curvature="0" />
      <path
         d="m 48.817806,130.09462 q 0,0.0413 -0.02067,0.0724 -0.02067,0.0258 -0.06718,0.0465 -0.04651,0.0207 -0.129191,0.031 -0.08268,0.0103 -0.206706,0.0103 -0.129191,0 -0.211873,-0.0103 -0.08268,-0.0103 -0.129191,-0.031 -0.04651,-0.0207 -0.06718,-0.0465 -0.02067,-0.031 -0.02067,-0.0724 v -2.72334 q 0,-0.39791 -0.06201,-0.64079 -0.06201,-0.24288 -0.180867,-0.41858 -0.118856,-0.1757 -0.310059,-0.26872 -0.186035,-0.093 -0.434082,-0.093 -0.320394,0 -0.640788,0.22737 -0.320394,0.22738 -0.671793,0.66663 v 3.25044 q 0,0.0413 -0.02067,0.0724 -0.02067,0.0258 -0.06718,0.0465 -0.04651,0.0207 -0.129191,0.031 -0.08268,0.0103 -0.211874,0.0103 -0.124023,0 -0.206705,-0.0103 -0.08268,-0.0103 -0.134359,-0.031 -0.04651,-0.0207 -0.06718,-0.0465 -0.0155,-0.031 -0.0155,-0.0724 v -4.65087 q 0,-0.0413 0.0155,-0.0672 0.0155,-0.031 0.06201,-0.0517 0.04651,-0.0258 0.118856,-0.031 0.07235,-0.0103 0.191203,-0.0103 0.113688,0 0.186035,0.0103 0.07751,0.005 0.118856,0.031 0.04134,0.0207 0.05684,0.0517 0.02067,0.0258 0.02067,0.0672 v 0.61495 q 0.392741,-0.43925 0.780315,-0.64079 0.39274,-0.20671 0.790649,-0.20671 0.465088,0 0.780314,0.1602 0.320394,0.15503 0.516764,0.41858 0.196371,0.26355 0.279053,0.62012 0.08785,0.3514 0.08785,0.84749 z"
         style="font-style:normal;font-variant:normal;font-weight:normal;font-stretch:normal;font-family:Calibri;-inkscape-font-specification:Calibri;stroke:#ffffff;stroke-width:0.301;stroke-miterlimit:4;stroke-dasharray:none;stroke-opacity:1;paint-order:stroke fill markers"
         id="path4761"
         inkscape:connector-curvature="0" />
      <g
         id="g973"
         transform="translate(1.122532)">
        <path
           sodipodi:nodetypes="scccsccssccscccscccsccscccscccssccscccscccsccccc"
           inkscape:connector-curvature="0"
           id="path4763"
           style="line-height:0.25;stroke:#ffffff;stroke-width:0.301;stroke-miterlimit:4;stroke-dasharray:none;stroke-opacity:1;paint-order:stroke fill markers"
           d="m 52.122137,130.09462 c 0,0.0275 -0.0069,0.0517 -0.02067,0.0724 -0.01033,0.0207 -0.031,0.0379 -0.06201,0.0517 -0.02756,0.0103 -0.06546,0.0189 -0.113688,0.0258 -0.04823,0.007 -0.1068,0.0103 -0.1757,0.0103 -0.07235,0 -0.132637,-0.003 -0.180868,-0.0103 -0.04823,-0.007 -0.08785,-0.0155 -0.118855,-0.0258 -0.03101,-0.0138 -0.0534,-0.031 -0.06718,-0.0517 -0.01378,-0.0207 -0.02067,-0.0448 -0.02067,-0.0724 v -0.61494 c -0.244602,0.26527 -0.499539,0.47197 -0.764811,0.62011 -0.261827,0.14814 -0.549493,0.22221 -0.862997,0.22221 -0.341065,0 -0.632175,-0.0655 -0.873332,-0.19637 -0.241157,-0.13436 -0.437527,-0.3135 -0.589111,-0.53743 -0.148139,-0.22738 -0.256659,-0.49265 -0.325561,-0.79582 -0.0689,-0.30661 -0.103353,-0.62873 -0.103353,-0.96635 0,-0.39963 0.04306,-0.75965 0.129191,-1.08004 0.08613,-0.32384 0.213596,-0.59945 0.382405,-0.82682 0.16881,-0.22738 0.377238,-0.40136 0.625285,-0.52193 0.251492,-0.12403 0.54088,-0.18604 0.868164,-0.18604 0.272163,0 0.52021,0.0603 0.744141,0.18087 0.227376,0.11713 0.451307,0.29111 0.671793,0.52193 v -2.47282 c 0,-0.0241 0.0052,-0.0465 0.0155,-0.0672 0.01378,-0.0241 0.0379,-0.0414 0.07235,-0.0517 0.03445,-0.0138 0.07752,-0.0241 0.129192,-0.031 0.05512,-0.0103 0.124022,-0.0155 0.206705,-0.0155 0.08613,0 0.156752,0.005 0.211874,0.0155 0.05512,0.007 0.09818,0.0172 0.129191,0.031 0.03101,0.0103 0.0534,0.0276 0.06718,0.0517 0.01723,0.0207 0.02584,0.0431 0.02584,0.0672 z m -0.857829,-3.27111 c -0.230821,-0.28595 -0.454752,-0.50299 -0.671793,-0.65113 -0.213596,-0.15158 -0.437527,-0.22737 -0.671794,-0.22737 -0.217041,0 -0.401353,0.0517 -0.552938,0.15503 -0.151584,0.10335 -0.275607,0.23943 -0.37207,0.40824 -0.09302,0.16881 -0.161919,0.36002 -0.206706,0.57361 -0.04134,0.21359 -0.06201,0.43063 -0.06201,0.65112 0,0.23427 0.01723,0.46337 0.05168,0.6873 0.03789,0.22393 0.101628,0.42375 0.191203,0.59945 0.08957,0.17225 0.208428,0.31178 0.356567,0.41857 0.148139,0.10335 0.334175,0.15503 0.558106,0.15503 0.113688,0 0.222208,-0.0155 0.325561,-0.0465 0.106798,-0.031 0.215319,-0.0827 0.325562,-0.15502 0.110243,-0.0724 0.225653,-0.16537 0.346232,-0.27906 0.120578,-0.11713 0.248046,-0.2601 0.382405,-0.42891 z" />
        <path
           inkscape:connector-curvature="0"
           id="path4765"
           style="line-height:0.25;stroke:#ffffff;stroke-width:0.301;stroke-miterlimit:4;stroke-dasharray:none;stroke-opacity:1;paint-order:stroke fill markers"
           d="m 55.554948,125.74244 q 0,0.60978 -0.134359,1.09554 -0.129191,0.48576 -0.387573,0.82682 -0.253215,0.3359 -0.630453,0.52193 -0.377238,0.18087 -0.862996,0.18087 -0.206706,0 -0.382406,-0.0413 -0.1757,-0.0413 -0.346232,-0.12919 -0.165364,-0.0879 -0.330729,-0.22221 -0.165365,-0.13436 -0.3514,-0.31523 v 2.32544 q 0,0.0413 -0.02067,0.0724 -0.02067,0.031 -0.06718,0.0517 -0.04651,0.0207 -0.129191,0.031 -0.08268,0.0103 -0.211873,0.0103 -0.124024,0 -0.206706,-0.0103 -0.08268,-0.0103 -0.134359,-0.031 -0.04651,-0.0207 -0.06718,-0.0517 -0.0155,-0.031 -0.0155,-0.0724 v -6.49572 q 0,-0.0465 0.0155,-0.0724 0.0155,-0.031 0.06201,-0.0517 0.04651,-0.0207 0.118856,-0.0258 0.07235,-0.0103 0.175699,-0.0103 0.108521,0 0.1757,0.0103 0.07235,0.005 0.118856,0.0258 0.04651,0.0207 0.06201,0.0517 0.02067,0.0258 0.02067,0.0724 v 0.62528 q 0.211874,-0.21704 0.408244,-0.37724 0.196371,-0.16019 0.392741,-0.26355 0.201538,-0.10852 0.408244,-0.16019 0.211873,-0.0568 0.444417,-0.0568 0.506429,0 0.862997,0.19637 0.356567,0.19637 0.578776,0.53744 0.227376,0.34106 0.330729,0.79581 0.103353,0.44959 0.103353,0.95602 z m -0.89917,0.0982 q 0,-0.35656 -0.05684,-0.68729 -0.05168,-0.3359 -0.186035,-0.59428 -0.129192,-0.25838 -0.3514,-0.41341 -0.222209,-0.15503 -0.552938,-0.15503 -0.165365,0 -0.325562,0.0517 -0.160196,0.0465 -0.325561,0.15503 -0.165365,0.10336 -0.346232,0.27906 -0.180868,0.17053 -0.382406,0.42374 v 1.85002 q 0.3514,0.42891 0.666626,0.65629 0.315226,0.22738 0.661459,0.22738 0.320393,0 0.54777,-0.15503 0.232544,-0.15503 0.37207,-0.41341 0.144694,-0.25839 0.211873,-0.57878 0.06718,-0.32039 0.06718,-0.64596 z" />
      </g>
      <path
         d="m 57.736296,130.09462 q 0,0.0413 -0.02067,0.0724 -0.02067,0.0258 -0.06718,0.0465 -0.04651,0.0207 -0.129191,0.031 -0.08268,0.0103 -0.211873,0.0103 -0.124024,0 -0.206706,-0.0103 -0.08268,-0.0103 -0.134359,-0.031 -0.04651,-0.0207 -0.06718,-0.0465 -0.0155,-0.031 -0.0155,-0.0724 v -6.90397 q 0,-0.0413 0.0155,-0.0723 0.02067,-0.031 0.06718,-0.0517 0.05168,-0.0207 0.134359,-0.031 0.08268,-0.0103 0.206706,-0.0103 0.129191,0 0.211873,0.0103 0.08268,0.0103 0.129191,0.031 0.04651,0.0207 0.06718,0.0517 0.02067,0.031 0.02067,0.0723 z"
         style="font-style:normal;font-variant:normal;font-weight:normal;font-stretch:normal;font-family:Calibri;-inkscape-font-specification:Calibri;stroke:#ffffff;stroke-width:0.301;stroke-miterlimit:4;stroke-dasharray:none;stroke-opacity:1;paint-order:stroke fill markers"
         id="path4767"
         inkscape:connector-curvature="0" />
      <path
         d="m 61.824821,130.09979 q 0,0.062 -0.04134,0.093 -0.04134,0.031 -0.113688,0.0465 -0.07235,0.0155 -0.211874,0.0155 -0.134358,0 -0.217041,-0.0155 -0.07751,-0.0155 -0.113688,-0.0465 -0.03617,-0.031 -0.03617,-0.093 v -0.46509 q -0.304891,0.32557 -0.682129,0.50643 -0.372071,0.18087 -0.79065,0.18087 -0.366902,0 -0.666626,-0.0982 -0.294555,-0.093 -0.506429,-0.27389 -0.206705,-0.18087 -0.325561,-0.44442 -0.113688,-0.26355 -0.113688,-0.59944 0,-0.39274 0.160197,-0.68213 0.160197,-0.28939 0.45992,-0.48059 0.299723,-0.19121 0.733805,-0.28422 0.434082,-0.0982 0.976685,-0.0982 h 0.640788 v -0.36173 q 0,-0.26872 -0.05684,-0.47543 -0.05684,-0.2067 -0.186035,-0.34106 -0.124023,-0.13953 -0.325561,-0.20671 -0.201538,-0.0723 -0.496094,-0.0723 -0.315226,0 -0.568441,0.0775 -0.248047,0.0724 -0.439249,0.16537 -0.186035,0.0878 -0.315227,0.16536 -0.124023,0.0724 -0.186035,0.0724 -0.04134,0 -0.07235,-0.0207 -0.03101,-0.0207 -0.05684,-0.062 -0.02067,-0.0413 -0.03101,-0.10335 -0.01033,-0.0672 -0.01033,-0.14469 0,-0.12919 0.0155,-0.20154 0.02067,-0.0775 0.08785,-0.14469 0.07235,-0.0672 0.242879,-0.15503 0.170532,-0.093 0.392741,-0.16537 0.222209,-0.0775 0.485758,-0.12402 0.26355,-0.0517 0.532268,-0.0517 0.501261,0 0.852661,0.11369 0.3514,0.11369 0.568441,0.3359 0.217041,0.21704 0.315226,0.5426 0.09819,0.32556 0.09819,0.75964 z m -0.847493,-2.1239 H 60.24869 q -0.3514,0 -0.609782,0.062 -0.258382,0.0568 -0.428914,0.1757 -0.170533,0.11369 -0.253215,0.27906 -0.07751,0.16019 -0.07751,0.37207 0,0.36173 0.227377,0.57877 0.232544,0.21188 0.645955,0.21188 0.335897,0 0.620117,-0.17054 0.289388,-0.17053 0.604615,-0.52193 z"
         style="font-style:normal;font-variant:normal;font-weight:normal;font-stretch:normal;font-family:Calibri;-inkscape-font-specification:Calibri;stroke:#ffffff;stroke-width:0.301;stroke-miterlimit:4;stroke-dasharray:none;stroke-opacity:1;paint-order:stroke fill markers"
         id="path4769"
         inkscape:connector-curvature="0" />
      <path
         d="m 66.099389,130.09462 q 0,0.0413 -0.02067,0.0724 -0.02067,0.0258 -0.06718,0.0465 -0.04651,0.0207 -0.129191,0.031 -0.08268,0.0103 -0.206705,0.0103 -0.129192,0 -0.211874,-0.0103 -0.08268,-0.0103 -0.129191,-0.031 -0.04651,-0.0207 -0.06718,-0.0465 -0.02067,-0.031 -0.02067,-0.0724 v -2.72334 q 0,-0.39791 -0.06201,-0.64079 -0.06201,-0.24288 -0.180867,-0.41858 -0.118856,-0.1757 -0.310059,-0.26872 -0.186035,-0.093 -0.434082,-0.093 -0.320394,0 -0.640787,0.22737 -0.320394,0.22738 -0.671794,0.66663 v 3.25044 q 0,0.0413 -0.02067,0.0724 -0.02067,0.0258 -0.06718,0.0465 -0.04651,0.0207 -0.129191,0.031 -0.08268,0.0103 -0.211873,0.0103 -0.124024,0 -0.206706,-0.0103 -0.08268,-0.0103 -0.134359,-0.031 -0.04651,-0.0207 -0.06718,-0.0465 -0.0155,-0.031 -0.0155,-0.0724 v -4.65087 q 0,-0.0413 0.0155,-0.0672 0.0155,-0.031 0.06201,-0.0517 0.04651,-0.0258 0.118855,-0.031 0.07235,-0.0103 0.191203,-0.0103 0.113688,0 0.186035,0.0103 0.07752,0.005 0.118856,0.031 0.04134,0.0207 0.05684,0.0517 0.02067,0.0258 0.02067,0.0672 v 0.61495 q 0.392741,-0.43925 0.780314,-0.64079 0.392741,-0.20671 0.790649,-0.20671 0.465088,0 0.780314,0.1602 0.320394,0.15503 0.516765,0.41858 0.19637,0.26355 0.279052,0.62012 0.08785,0.3514 0.08785,0.84749 z"
         style="font-style:normal;font-variant:normal;font-weight:normal;font-stretch:normal;font-family:Calibri;-inkscape-font-specification:Calibri;stroke:#ffffff;stroke-width:0.301;stroke-miterlimit:4;stroke-dasharray:none;stroke-opacity:1;paint-order:stroke fill markers"
         id="path4771"
         inkscape:connector-curvature="0" />
      <path
         d="m 70.554331,127.56765 q 0,0.20154 -0.103353,0.28939 -0.09819,0.0827 -0.227377,0.0827 h -3.048909 q 0,0.38757 0.07751,0.69763 0.07751,0.31006 0.258382,0.53227 0.180867,0.22221 0.470255,0.34106 0.289388,0.11886 0.707967,0.11886 0.33073,0 0.589112,-0.0517 0.258382,-0.0568 0.444417,-0.12402 0.191203,-0.0672 0.310059,-0.11886 0.124023,-0.0568 0.186035,-0.0568 0.03617,0 0.06201,0.0207 0.03101,0.0155 0.04651,0.0517 0.0155,0.0362 0.02067,0.10336 0.01034,0.062 0.01034,0.15503 0,0.0672 -0.0052,0.11885 -0.0052,0.0465 -0.0155,0.0879 -0.0052,0.0362 -0.02584,0.0672 -0.0155,0.031 -0.04651,0.062 -0.02584,0.0258 -0.165365,0.093 -0.139526,0.062 -0.361735,0.12402 -0.222209,0.062 -0.516764,0.10852 -0.289388,0.0517 -0.620117,0.0517 -0.573609,0 -1.007691,-0.1602 -0.428914,-0.16019 -0.72347,-0.47542 -0.294556,-0.31523 -0.444417,-0.79065 -0.149862,-0.47542 -0.149862,-1.10587 0,-0.59945 0.155029,-1.07487 0.15503,-0.48059 0.444418,-0.81132 0.294555,-0.3359 0.707967,-0.5116 0.413411,-0.18087 0.925008,-0.18087 0.54777,0 0.930176,0.1757 0.387573,0.1757 0.63562,0.47543 0.248047,0.29455 0.361735,0.69763 0.118856,0.39791 0.118856,0.85266 z m -0.857829,-0.25322 q 0.0155,-0.67179 -0.299723,-1.0542 -0.310059,-0.3824 -0.925009,-0.3824 -0.315226,0 -0.552937,0.11885 -0.237712,0.11886 -0.397909,0.31523 -0.160197,0.19637 -0.248047,0.45992 -0.08785,0.25838 -0.09818,0.5426 z"
         style="font-style:normal;font-variant:normal;font-weight:normal;font-stretch:normal;font-family:Calibri;-inkscape-font-specification:Calibri;stroke:#ffffff;stroke-width:0.301;stroke-miterlimit:4;stroke-dasharray:none;stroke-opacity:1;paint-order:stroke fill markers"
         id="path4773"
         inkscape:connector-curvature="0" />
      <path
         d="m 73.881894,128.82855 q 0,0.35657 -0.134359,0.63562 -0.129191,0.27906 -0.37207,0.47026 -0.242879,0.1912 -0.578776,0.28939 -0.335897,0.0982 -0.738973,0.0982 -0.248047,0 -0.475423,-0.0413 -0.222209,-0.0362 -0.403076,-0.093 -0.1757,-0.062 -0.299723,-0.12402 -0.124024,-0.0672 -0.180868,-0.11886 -0.05684,-0.0517 -0.08268,-0.14469 -0.02584,-0.093 -0.02584,-0.25322 0,-0.0982 0.01034,-0.16536 0.01033,-0.0672 0.02584,-0.10852 0.0155,-0.0413 0.04134,-0.0568 0.03101,-0.0207 0.06718,-0.0207 0.05684,0 0.165364,0.0724 0.113688,0.0672 0.273885,0.14986 0.165365,0.0827 0.387573,0.15503 0.222209,0.0672 0.511597,0.0672 0.217041,0 0.392741,-0.0465 0.1757,-0.0465 0.304891,-0.13436 0.129191,-0.093 0.19637,-0.23254 0.07235,-0.13953 0.07235,-0.33073 0,-0.19637 -0.103353,-0.33073 -0.09819,-0.13436 -0.263549,-0.23771 -0.165365,-0.10335 -0.372071,-0.18087 -0.206705,-0.0827 -0.428914,-0.17053 -0.217041,-0.0879 -0.428914,-0.19637 -0.206706,-0.11369 -0.372071,-0.27388 -0.165364,-0.1602 -0.268717,-0.38241 -0.09819,-0.22221 -0.09819,-0.53227 0,-0.27388 0.103353,-0.52193 0.10852,-0.25321 0.320393,-0.43925 0.211874,-0.1912 0.5271,-0.30489 0.320394,-0.11369 0.744141,-0.11369 0.186035,0 0.37207,0.031 0.186035,0.031 0.335897,0.0775 0.149861,0.0465 0.253214,0.10336 0.108521,0.0517 0.160197,0.093 0.05684,0.0413 0.07235,0.0724 0.02067,0.031 0.02584,0.0724 0.01034,0.0362 0.0155,0.093 0.01034,0.0568 0.01034,0.13953 0,0.0878 -0.01034,0.15503 -0.0052,0.062 -0.02584,0.10335 -0.0155,0.0413 -0.04134,0.062 -0.02584,0.0155 -0.05684,0.0155 -0.04651,0 -0.134359,-0.0568 -0.08785,-0.0568 -0.227376,-0.11885 -0.139527,-0.0672 -0.330729,-0.12403 -0.186035,-0.0568 -0.428915,-0.0568 -0.217041,0 -0.382405,0.0517 -0.165365,0.0465 -0.273885,0.13952 -0.103353,0.0878 -0.160197,0.21188 -0.05168,0.12402 -0.05168,0.26871 0,0.20154 0.103353,0.34107 0.103353,0.13436 0.268718,0.23771 0.165364,0.10335 0.377238,0.18604 0.211873,0.0827 0.428914,0.17053 0.222209,0.0879 0.434082,0.19637 0.217041,0.10852 0.382406,0.26355 0.165364,0.15503 0.263549,0.37207 0.103353,0.21704 0.103353,0.51676 z"
         style="font-style:normal;font-variant:normal;font-weight:normal;font-stretch:normal;font-family:Calibri;-inkscape-font-specification:Calibri;stroke:#ffffff;stroke-width:0.301;stroke-miterlimit:4;stroke-dasharray:none;stroke-opacity:1;paint-order:stroke fill markers"
         id="path4775"
         inkscape:connector-curvature="0" />
      <a
         id="a4812" />
      <g
         transform="matrix(0.35277777,0,0,-0.35277777,-139.70254,295.33411)"
         inkscape:label="Air Planes"
         id="g4823">
        <g
           id="g4825">
          <g
             id="g4827">
            <g
               id="g4833">
              <g
                 id="g4835" />
            </g>
          </g>
        </g>
        <g
           id="g4847">
          <g
             clip-path="url(#clipPath4853)"
             id="g4849">
            <g
               transform="translate(91.8599,674.167)"
               id="g4855" />
            <g
               transform="translate(572.6196,794.2993)"
               id="g4859" />
            <g
               transform="translate(990.9629,813.1826)"
               id="g4863" />
            <g
               transform="translate(1350.0918,815.0083)"
               id="g4867" />
            <g
               transform="translate(210.0312,351.002)"
               id="g4871" />
            <g
               transform="translate(627.9019,287.9609)"
               id="g4875" />
            <g
               transform="translate(1000.4268,245.7402)"
               id="g4879" />
            <g
               transform="translate(1167.1465,187.4687)"
               id="g4883" />
          </g>
        </g>
      </g>
    </g>
  </g>
</svg>
