<?xml version="1.0" encoding="UTF-8" standalone="no"?>
<svg
   xmlns:dc="http://purl.org/dc/elements/1.1/"
   xmlns:cc="http://creativecommons.org/ns#"
   xmlns:rdf="http://www.w3.org/1999/02/22-rdf-syntax-ns#"
   xmlns:svg="http://www.w3.org/2000/svg"
   xmlns="http://www.w3.org/2000/svg"
   xmlns:sodipodi="http://sodipodi.sourceforge.net/DTD/sodipodi-0.dtd"
   xmlns:inkscape="http://www.inkscape.org/namespaces/inkscape"
   version="1.1"
   x="0px"
   y="0px"
   viewBox="0 0 57.98 88.25"
   enable-background="new 0 0 100 100"
   xml:space="preserve"
   id="svg10"
   sodipodi:docname="airport-icon.svg"
   width="57.98"
   height="88.25"
   inkscape:version="0.92.4 (5da689c313, 2019-01-14)"><metadata
     id="metadata16"><rdf:RDF><cc:Work
         rdf:about=""><dc:format>image/svg+xml</dc:format><dc:type
           rdf:resource="http://purl.org/dc/dcmitype/StillImage" /><dc:title /></cc:Work></rdf:RDF></metadata><defs
     id="defs14" /><sodipodi:namedview
     pagecolor="#ffffff"
     bordercolor="#666666"
     borderopacity="1"
     objecttolerance="10"
     gridtolerance="10"
     guidetolerance="10"
     inkscape:pageopacity="0"
     inkscape:pageshadow="2"
     inkscape:window-width="1920"
     inkscape:window-height="1001"
     id="namedview12"
     showgrid="false"
     fit-margin-top="0"
     fit-margin-left="0"
     fit-margin-right="0"
     fit-margin-bottom="0"
     inkscape:zoom="1.888"
     inkscape:cx="-71.514495"
     inkscape:cy="79.80355"
     inkscape:window-x="-9"
     inkscape:window-y="-9"
     inkscape:window-maximized="1"
     inkscape:current-layer="svg10" /><g
     id="g4"
     transform="translate(-21.01,-7.75)"
     style="fill:#4d4d4d"
     inkscape:export-xdpi="96"
     inkscape:export-ydpi="96"><path
       d="M 50,7.75 C 33.99,7.75 21.01,20.73 21.01,36.74 21.01,61.97 50,71 50,96 50,71 78.99,60.65 78.99,36.74 78.99,20.73 66.008,7.75 50,7.75 Z M 32.975,45.145 c -0.294,-1.059 1.51,-2.495 3.945,-3.096 1.896,-0.472 5.337,-1.321 5.465,-1.357 l 1.759,-0.421 c 0.127,-0.038 0.26,-0.174 0.271,-0.311 l 9.839,-16.128 c 0.022,-0.126 0.142,-0.272 0.283,-0.302 l 1.569,-0.381 c 0.143,-0.028 0.256,0.047 0.259,0.193 l -5.682,15.1 c 0.014,0.133 0.127,0.209 0.27,0.181 l 3.433,-0.835 c 0.132,-0.014 0.354,-0.07 0.471,-0.093 l 8.719,-1.434 c 0.132,-0.014 0.255,-0.136 0.287,-0.276 l 0.979,-5.829 c 0.01,-0.136 0.143,-0.272 0.283,-0.301 l 0.397,-0.102 c 0.118,-0.023 0.245,0.062 0.259,0.195 l 0.591,5.997 c 0.016,0.133 0.142,0.279 0.277,0.289 0,0 1.12,0.198 1.189,0.49 0.093,0.29 -0.801,0.979 -0.801,0.979 -0.109,0.072 -0.161,0.241 -0.101,0.365 l 1.617,1.351 c 0.061,0.123 0,0.247 -0.129,0.284 l -0.165,0.033 c -0.128,0.037 -0.474,-0.03 -0.785,-0.117 l -2.62,-0.528 c -0.269,-0.056 -0.405,-0.067 -0.52,-0.02 l -8.384,2.683 c -0.129,0.036 -0.336,0.101 -0.479,0.13 l -3.433,0.835 c -0.127,0.037 -0.189,0.16 -0.127,0.283 l 4.002,2.87 c 0.062,0.123 -0.01,0.259 -0.152,0.287 l -1.22,0.29 C 54.415,46.486 54.055,46.471 53.796,46.4 L 45.85,44.452 c -0.377,-0.109 -0.477,-0.115 -0.609,-0.101 l -1.754,0.444 c -0.133,0.014 -3.063,0.713 -5.493,1.277 -2.439,0.579 -4.748,0.136 -5.019,-0.927 z"
       id="path2"
       inkscape:connector-curvature="0"
       style="fill:#4d4d4d" /></g></svg>