<?xml version="1.0" encoding="iso-8859-1"?>
<!-- Generator: Adobe Illustrator 18.1.1, SVG Export Plug-In . SVG Version: 6.00 Build 0)  -->
<svg version="1.1" id="Capa_1" xmlns="http://www.w3.org/2000/svg" xmlns:xlink="http://www.w3.org/1999/xlink" x="0px" y="0px"
	 viewBox="0 0 47.377 47.377" style="enable-background:new 0 0 47.377 47.377;" xml:space="preserve">
<g>
	<path style="fill:#010002;" d="M44.324,26.745l-16.629-7.33l0.48-11.854C28.175,6.302,27.177,0,24.374,0h-0.665
		c-3.231,0-3.801,6.302-3.801,7.561l0.467,11.549l-17.32,7.635c-0.769,0.339-1.192,1.181-0.948,1.881l0.443,1.266l18.206-1.385
		l0.36,6.879l-4.662,6.388c-0.611,0.575-1.008,1.552-0.886,2.182l0.223,1.141l5.583-1.338l0.054,1.338c0,1.26,1.022,2.28,2.281,2.28
		h0.665c1.259,0,2.28-1.021,2.28-2.28l0.054-1.333l5.561,1.333l0.222-1.141c0.123-0.63-0.274-1.606-0.886-2.182l-4.64-6.367
		l0.358-6.846l17.503,1.331l0.444-1.266C45.516,27.925,45.092,27.084,44.324,26.745z"/>
</g>
<g>
</g>
<g>
</g>
<g>
</g>
<g>
</g>
<g>
</g>
<g>
</g>
<g>
</g>
<g>
</g>
<g>
</g>
<g>
</g>
<g>
</g>
<g>
</g>
<g>
</g>
<g>
</g>
<g>
</g>
</svg>
