<?xml version="1.0" encoding="UTF-8" standalone="no"?>
<!-- Generator: Adobe Illustrator 16.0.0, SVG Export Plug-In . SVG Version: 6.00 Build 0)  -->

<svg
   xmlns:dc="http://purl.org/dc/elements/1.1/"
   xmlns:cc="http://creativecommons.org/ns#"
   xmlns:rdf="http://www.w3.org/1999/02/22-rdf-syntax-ns#"
   xmlns:svg="http://www.w3.org/2000/svg"
   xmlns="http://www.w3.org/2000/svg"
   xmlns:sodipodi="http://sodipodi.sourceforge.net/DTD/sodipodi-0.dtd"
   xmlns:inkscape="http://www.inkscape.org/namespaces/inkscape"
   version="1.1"
   id="Capa_1"
   x="0px"
   y="0px"
   width="464.535px"
   height="464.535px"
   viewBox="0 0 464.535 464.535"
   style="enable-background:new 0 0 464.535 464.535;"
   xml:space="preserve"
   sodipodi:docname="volume-icon.svg"
   inkscape:version="0.92.4 (5da689c313, 2019-01-14)"><metadata
   id="metadata100"><rdf:RDF><cc:Work
       rdf:about=""><dc:format>image/svg+xml</dc:format><dc:type
         rdf:resource="http://purl.org/dc/dcmitype/StillImage" /></cc:Work></rdf:RDF></metadata><defs
   id="defs98" /><sodipodi:namedview
   pagecolor="#ffffff"
   bordercolor="#666666"
   borderopacity="1"
   objecttolerance="10"
   gridtolerance="10"
   guidetolerance="10"
   inkscape:pageopacity="0"
   inkscape:pageshadow="2"
   inkscape:window-width="849"
   inkscape:window-height="480"
   id="namedview96"
   showgrid="false"
   inkscape:zoom="0.50803491"
   inkscape:cx="232.2675"
   inkscape:cy="232.2675"
   inkscape:window-x="0"
   inkscape:window-y="0"
   inkscape:window-maximized="0"
   inkscape:current-layer="Capa_1" />
<g
   id="g63"
   style="fill:#ececec">
	<path
   d="M48.796,329.839h51.019l140.506,92.274c19.515,10.776,48.793-21.853,48.793-48.798V92.733   c0-26.952-24.394-64.249-48.793-48.801l-140.244,100.48H48.796C21.844,144.413,0,166.257,0,193.209v87.834   C0,307.99,21.844,329.839,48.796,329.839z"
   id="path57"
   style="fill:#ececec" />
	<path
   d="M336.417,98.338c53.326,0,96.719,60.077,96.719,133.928c0,73.854-43.393,133.929-96.719,133.929   c-8.673,0-15.701,7.037-15.701,15.7c0,8.669,7.028,15.701,15.701,15.701c70.65,0,128.117-74.165,128.117-165.33   s-57.467-165.33-128.117-165.33c-8.673,0-15.701,7.035-15.701,15.701C320.716,91.305,327.737,98.338,336.417,98.338z"
   id="path59"
   style="fill:#ececec" />
	<path
   d="M324.624,299.747c-8.66,0-15.701,7.041-15.701,15.701c0,8.672,7.041,15.701,15.701,15.701   c33.702,0,59.109-42.511,59.109-98.884c0-56.374-25.407-98.885-59.109-98.885c-8.66,0-15.701,7.033-15.701,15.701   c0,8.666,7.041,15.701,15.701,15.701c11.032,0,27.707,26.92,27.707,67.483C352.331,272.833,335.656,299.747,324.624,299.747z"
   id="path61"
   style="fill:#ececec" />
</g>
<g
   id="g65">
</g>
<g
   id="g67">
</g>
<g
   id="g69">
</g>
<g
   id="g71">
</g>
<g
   id="g73">
</g>
<g
   id="g75">
</g>
<g
   id="g77">
</g>
<g
   id="g79">
</g>
<g
   id="g81">
</g>
<g
   id="g83">
</g>
<g
   id="g85">
</g>
<g
   id="g87">
</g>
<g
   id="g89">
</g>
<g
   id="g91">
</g>
<g
   id="g93">
</g>
</svg>